PathFileType	4	(X/Y/Z)	C:\Users\Basilio\Documents\Thesis Gigler\squatting_fais\c3dfiles\040\SLS_pre_front2\markers_experimental.trc
DataRate	CameraRate	NumFrames	NumMarkers	Units	OrigDataRate	OrigDataStartFrame	OrigNumFrames
200.000000	200.000000	4	62	mm	200.000000	1103	1471
Frame#	Time	FHD			LBHD			RBHD			C7			T10			CLAV			LSHO			LUUPA			LMUPA			LDUPA			LLEP			LMEP			LRAD			LUL			LRFIN			RSHO			RUPA1			RMUPA			RDUPA			RLEP			RMEP			RRAD			RUL			RUFIN			LASI			RASI			USACR			LSACR			RSACR			LTHI1			LTHI2			LTHI3			LTHI4			LLFC			LMFC			LTIB1			LTIB2			LTIB3			LTIB4			LLMAL			LMMAL			LHEE			LMT1			LMT2			LMT5			RTHI			RTHI2			RTHI3			RTHI4			RLFC			RMFC			RTIB1			RTIB2			RTIB3			RTIB4			RLMAL			RMMAL			RHEE			RMT1			RMT2			RMT5			*61			
		X1	Y1	Z1	X2	Y2	Z2	X3	Y3	Z3	X4	Y4	Z4	X5	Y5	Z5	X6	Y6	Z6	X7	Y7	Z7	X8	Y8	Z8	X9	Y9	Z9	X10	Y10	Z10	X11	Y11	Z11	X12	Y12	Z12	X13	Y13	Z13	X14	Y14	Z14	X15	Y15	Z15	X16	Y16	Z16	X17	Y17	Z17	X18	Y18	Z18	X19	Y19	Z19	X20	Y20	Z20	X21	Y21	Z21	X22	Y22	Z22	X23	Y23	Z23	X24	Y24	Z24	X25	Y25	Z25	X26	Y26	Z26	X27	Y27	Z27	X28	Y28	Z28	X29	Y29	Z29	X30	Y30	Z30	X31	Y31	Z31	X32	Y32	Z32	X33	Y33	Z33	X34	Y34	Z34	X35	Y35	Z35	X36	Y36	Z36	X37	Y37	Z37	X38	Y38	Z38	X39	Y39	Z39	X40	Y40	Z40	X41	Y41	Z41	X42	Y42	Z42	X43	Y43	Z43	X44	Y44	Z44	X45	Y45	Z45	X46	Y46	Z46	X47	Y47	Z47	X48	Y48	Z48	X49	Y49	Z49	X50	Y50	Z50	X51	Y51	Z51	X52	Y52	Z52	X53	Y53	Z53	X54	Y54	Z54	X55	Y55	Z55	X56	Y56	Z56	X57	Y57	Z57	X58	Y58	Z58	X59	Y59	Z59	X60	Y60	Z60	X61	Y61	Z61	X62	Y62	Z62	

1104	5.515	-160.2202453613282	1781.912719726563	-1054.592163085938	-282.8051147460938	1732.303100585938	-1104.8603515625	-342.2197570800782	1689.681640625	-977.1876220703127	-350.9479980468751	1568.338500976563	-1029.224609375	-372.8655395507813	1247.770629882813	-1027.015380859375	-222.942123413086	1497.526000976563	-1024.427001953125	-266.3577270507813	1534.514770507813	-1195.665893554688	-213.1755828857422	1330.333984375	-1257.198120117188	-176.594223022461	1318.458374023438	-1225.848022460938	-189.5933685302735	1265.1435546875	-1253.090576171875	-180.6536407470703	1199.503662109375	-1245.350463867188	-229.4200134277344	1183.867309570313	-1199.421020507813	34.33798217773438	1101.56591796875	-1076.625	14.31598567962647	1043.660766601563	-1119.77001953125	114.7463760375977	1056.804565429688	-1074.873046875	-265.3979187011719	1503.717895507813	-859.9171142578127	-243.8536376953126	1295.381103515625	-788.9212646484377	-202.5059051513672	1283.683471679688	-810.399108886719	-220.253402709961	1230.313354492188	-791.2258300781252	-192.3824920654297	1169.893920898438	-800.4326171875002	-241.3970184326172	1150.77783203125	-858.610290527344	20.43538856506348	1076.491577148438	-974.6091918945315	3.800855398178101	1013.07177734375	-939.360778808594	103.0752182006836	1049.96044921875	-972.2178344726565	-186.5424957275391	1075.932983398438	-1134.368041992188	-191.1391754150391	1073.5205078125	-901.061706542969	-374.1602783203126	1119.007446289063	-1021.2236328125	-380.2548522949219	1090.49560546875	-1049.689453125	-381.4523925781251	1089.468139648438	-993.4936523437502	-322.3963012695313	825.166442871094	-1195.560180664063	-289.2137451171876	746.9262084960939	-1196.622924804688	-242.6737213134766	748.1396484375001	-1195.60302734375	-316.5277404785157	695.7257690429689	-1183.56982421875	-311.5566406250001	560.7069702148439	-1167.98876953125	-316.5988464355469	545.8862915039064	-1035.580078125	-279.6174011230469	340.3572692871094	-1119.114868164063	-349.2929382324219	298.6457519531251	-1154.971069335938	-305.9640502929688	292.8132324218751	-1141.833129882813	-294.2119445800782	216.1559753417969	-1102.598266601563	-356.9806213378907	126.6212387084961	-1105.707153320313	-320.8303527832032	143.2442474365235	-1028.490966796875	-414.111541748047	96.64461517333987	-1049.200927734375	-199.5268249511719	60.78596496582033	-1050.01611328125	-205.0587005615235	53.73872375488283	-1096.108032226563	-261.7174377441407	38.10313034057618	-1137.325073242188	-263.2272644042969	809.3516235351565	-837.0422973632815	-232.2804718017579	750.2492675781251	-838.6496582031252	-198.9214172363282	749.9190063476564	-844.5877685546877	-266.6358947753907	675.0775756835939	-854.3508911132815	-269.1687622070313	539.2185058593751	-866.1614379882815	-262.7518310546876	532.5794067382814	-999.1998291015627	-220.5403594970704	353.7748413085938	-891.2510986328127	-290.8768615722657	276.8872070312501	-869.2902832031252	-245.8635406494141	272.3235168457032	-877.704040527344	-229.7807617187501	226.6814270019532	-912.1657714843752	-282.1730957031251	114.7113723754883	-895.4157714843752	-262.4116516113282	128.6538696289063	-980.4311523437502	-342.1707153320313	75.56356811523439	-950.275573730469	-122.0290832519532	56.3767433166504	-961.3137817382815	-126.4793167114258	56.45122146606447	-922.1085205078127	-168.4684143066407	35.24795150756837	-868.5686035156252	nan	nan	nan	
1105	5.52	-160.9361572265625	1782.4541015625	-1054.851440429688	-282.5753173828126	1732.227905273438	-1105.013793945313	-342.1166687011719	1689.558715820313	-977.2572021484377	-350.6434936523438	1568.397583007813	-1029.289428710938	-373.6047668457032	1247.450439453125	-1027.369873046875	-222.728744506836	1497.442626953125	-1024.389892578125	-266.1710510253907	1534.642944335938	-1195.756713867188	-212.9431610107422	1330.2333984375	-1257.131103515625	-176.3813934326172	1318.3662109375	-1225.733520507813	-189.4295043945313	1265.0302734375	-1252.971923828125	-180.2804412841797	1199.494750976563	-1245.239013671875	-229.7181243896485	1183.694213867188	-1199.803100585938	33.37284088134766	1101.953979492188	-1074.558471679688	14.0241756439209	1044.209838867188	-1118.054321289063	114.5356140136719	1058.341552734375	-1074.4111328125	-265.1146240234376	1503.932250976563	-859.8754882812502	-244.1470184326172	1295.284545898438	-788.9028930664065	-202.9235534667969	1283.54248046875	-810.3852539062502	-220.9893341064454	1230.27099609375	-791.1011962890627	-193.4144287109376	1168.825561523438	-799.971374511719	-242.0334167480469	1150.810180664063	-858.592956542969	19.61915969848633	1077.919189453125	-975.6345214843752	2.551605224609375	1013.915832519531	-941.3389282226565	102.9687728881836	1051.628540039063	-972.252624511719	-186.4319610595703	1075.933715820313	-1134.3310546875	-190.8663940429688	1073.489013671875	-901.2048339843752	-373.8889465332032	1119.361694335938	-1021.158935546875	-380.1127624511719	1090.510375976563	-1049.670776367188	-381.4057312011719	1089.537475585938	-993.443298339844	-322.2436218261719	825.130798339844	-1195.50830078125	-289.1282958984376	746.9086914062501	-1196.627319335938	-242.6393432617188	748.1160888671876	-1195.588012695313	-316.3772888183594	695.6762084960939	-1183.531005859375	-311.4969482421876	560.7941894531251	-1168.009155273438	-316.4188842773438	545.8775024414064	-1035.521118164063	-279.4863281250001	340.3223266601563	-1119.117065429688	-349.3069763183594	298.6704711914063	-1154.93994140625	-305.8637390136719	292.7899475097657	-1141.875122070313	-294.2267761230469	216.2191772460938	-1102.655883789063	-356.9958496093751	126.6897735595703	-1105.664916992188	-320.8550415039063	143.2366485595703	-1028.487426757813	-414.142547607422	96.63845825195315	-1049.199584960938	-199.4866027832032	60.72762298583986	-1050.07666015625	-205.0657196044922	53.76935195922853	-1096.083740234375	-261.7604980468751	38.11006546020509	-1137.287719726563	-263.1792602539063	809.3662109375002	-837.0130004882815	-232.1607818603516	750.1921386718751	-838.547790527344	-198.8865966796876	749.8007202148439	-844.528259277344	-266.5765686035157	675.0377807617189	-854.314636230469	-269.1681213378907	539.2255859375001	-866.101257324219	-262.8101501464844	532.5882568359376	-999.1804199218752	-220.5197906494141	353.7420349121094	-891.2385864257815	-290.9216613769532	276.8826293945313	-869.328796386719	-245.8165130615235	272.2984924316407	-877.7744750976565	-229.7868347167969	226.6612091064454	-912.1773681640627	-282.1319885253907	114.7248916625977	-895.4082641601565	-262.4954833984376	128.7153625488282	-980.4591064453127	-342.1986694335938	75.61980438232423	-950.281433105469	-121.9820709228516	56.39291763305665	-961.2924804687502	-126.4789962768555	56.45001220703126	-922.1204833984377	-168.4500427246094	35.19196701049805	-868.5603027343752	nan	nan	nan	
1106	5.525	-160.9324188232422	1782.689575195313	-1055.055908203125	-282.3743896484376	1732.126220703125	-1105.205688476563	-341.8952026367188	1689.385864257813	-977.4071044921877	-350.5802917480469	1568.522583007813	-1029.3955078125	-373.2904052734376	1247.569580078125	-1027.2958984375	-222.5424041748047	1497.318969726563	-1024.384765625	-265.6915588378907	1534.485107421875	-1195.876831054688	-212.5518493652344	1330.185791015625	-1257.043701171875	-176.2441558837891	1318.237915039063	-1225.606201171875	-189.2207336425782	1264.910888671875	-1252.849365234375	-180.1583557128907	1199.4091796875	-1245.118530273438	-229.9879760742188	1183.536254882813	-1200.080810546875	32.43400955200196	1102.4130859375	-1072.530029296875	13.40631771087647	1044.909790039063	-1115.658203125	114.2199249267578	1059.482177734375	-1074.234008789063	-264.8718872070313	1504.134887695313	-859.753601074219	-244.6966705322266	1295.356567382813	-788.7710571289065	-203.6745758056641	1283.439453125	-810.3236083984377	-221.6535186767579	1230.235595703125	-791.107116699219	-193.8243255615235	1169.493408203125	-800.5209960937502	-243.4656524658204	1150.96142578125	-858.5678710937502	18.75950241088868	1078.979614257813	-976.4956054687502	1.450548171997071	1015.130859375	-942.8094482421877	102.1231002807617	1052.484008789063	-971.8265380859377	-186.2994537353516	1075.870361328125	-1134.268188476563	-190.7732391357422	1073.464233398438	-901.045349121094	-373.7785034179688	1119.333740234375	-1021.084350585938	-379.9481506347657	1090.467651367188	-1049.599731445313	-381.2645263671876	1089.486083984375	-993.4223632812502	-322.1917114257813	825.1284790039065	-1195.45166015625	-289.0332031250001	746.9463500976564	-1196.572509765625	-242.5289611816407	748.1433105468751	-1195.618896484375	-316.2815551757813	695.6737670898439	-1183.525268554688	-311.3861999511719	560.6688232421876	-1167.97509765625	-316.1990966796876	545.8456420898439	-1035.506225585938	-279.0660400390626	339.9649353027344	-1119.057495117188	-349.2119445800782	298.6406250000001	-1154.949462890625	-305.8349609375001	292.7887573242188	-1141.794921875	-293.9876708984376	215.8601684570313	-1102.66015625	-356.8984985351563	126.6688995361328	-1105.605590820313	-320.8179626464844	143.2394561767578	-1028.47509765625	-414.1350097656251	96.63687133789065	-1049.172485351563	-199.6170501708985	60.7252883911133	-1050.03564453125	-205.0582275390626	53.76563644409181	-1096.113037109375	-261.7754821777344	38.13041687011719	-1137.305297851563	-263.1712951660157	809.347839355469	-836.9668579101565	-232.0965423583985	750.1681518554689	-838.5037231445315	-198.8494567871094	749.8417358398439	-844.4898681640627	-266.4893493652344	674.9313354492189	-854.2395019531252	-269.1572875976563	539.2586669921876	-866.1015625000002	-262.8255004882813	532.5631103515626	-999.1834106445315	-220.5358276367188	353.7512817382813	-891.2553710937502	-290.8239746093751	276.9293518066407	-869.3035278320315	-245.7874755859376	272.3163452148438	-877.7188720703127	-229.7664031982422	226.6934967041016	-912.2478637695315	-282.1052246093751	114.8042144775391	-895.4176025390627	-262.4426269531251	128.6750183105469	-980.5212402343752	-342.1954345703126	75.58479309082033	-950.3110961914065	-122.0794677734375	56.43114852905275	-961.3449707031252	-126.4476623535157	56.42674636840822	-922.1302490234377	-168.4142761230469	35.2971534729004	-868.5999145507815	nan	nan	nan	
1107	5.53	-160.7335968017578	1782.8486328125	-1055.251586914063	-282.1199340820313	1732.095092773438	-1105.343383789063	-341.7257080078126	1689.217651367188	-977.5242919921877	-350.2923583984376	1568.49072265625	-1029.463256835938	-373.0063171386719	1247.57958984375	-1027.22607421875	-222.2092285156251	1497.188354492188	-1024.393920898438	-265.4525146484376	1534.488525390625	-1195.924194335938	-212.2886352539063	1330.128662109375	-1257.019775390625	-175.9962158203125	1318.220336914063	-1225.56396484375	-189.0588836669922	1264.816162109375	-1252.776489257813	-179.9794921875	1199.305786132813	-1244.95703125	-230.1053009033204	1183.356811523438	-1200.270874023438	31.57660102844239	1102.5458984375	-1070.99169921875	12.8813648223877	1045.017822265625	-1113.902587890625	113.7752456665039	1060.341064453125	-1074.346435546875	-264.5586547851563	1504.234741210938	-859.6989746093752	-245.1405792236329	1295.449340820313	-788.715515136719	-203.9515991210938	1283.399536132813	-810.3847656250002	-222.3469696044922	1230.038452148438	-791.0988769531252	-194.0926513671876	1169.074584960938	-800.4945068359377	-244.2183532714844	1150.855590820313	-858.6304931640627	18.40032196044922	1080.105346679688	-977.3198242187502	-0.1371952593326569	1015.710266113281	-944.6439208984377	101.2740631103516	1054.14599609375	-971.2026977539065	-186.1677551269532	1075.875244140625	-1134.279296875	-190.6870727539063	1073.517578125	-900.9980468750002	-373.6309814453126	1119.339965820313	-1021.035827636719	-378.7959594726563	1090.405395507813	-1049.237182617188	-381.0450744628907	1089.464233398438	-993.3836059570315	-322.0943298339844	825.1362304687502	-1195.364379882813	-288.9941406250001	746.9588012695314	-1196.527954101563	-242.4447479248047	748.1415405273439	-1195.57177734375	-316.2101440429688	695.6594848632814	-1183.450439453125	-311.3458557128907	560.0337524414064	-1168.045654296875	-316.0256652832032	545.8526000976564	-1035.44873046875	-279.3836364746094	340.2578125000001	-1119.1650390625	-349.2127990722657	298.6416015625001	-1154.945068359375	-305.8626708984376	292.7951660156251	-1141.72265625	-293.9515686035157	215.8848419189454	-1102.604736328125	-356.9150085449219	126.6529922485352	-1105.64453125	-320.8280639648438	143.2215576171875	-1028.4853515625	-414.1503906250001	96.62346649169925	-1049.168212890625	-199.5276184082032	60.7904510498047	-1050.098999023438	-205.0819854736329	53.76247406005861	-1096.101318359375	-261.7461547851563	38.08955001831055	-1137.318237304688	-263.0613098144532	809.297058105469	-836.9008789062502	-232.050765991211	750.1438598632814	-838.462097167969	-198.8091278076172	749.9119873046876	-844.489929199219	-266.4496154785157	674.9151611328126	-854.227966308594	-269.1715698242188	539.2665405273439	-866.1113281250002	-262.8780822753907	532.5687866210939	-999.098815917969	-220.5254821777344	353.7320251464844	-891.285583496094	-290.8047180175782	276.8628845214844	-869.3303833007815	-245.7748565673829	272.2638854980469	-877.7629394531252	-229.7547912597657	226.6492919921876	-912.2526855468752	-282.0921936035157	114.7752532958985	-895.460144042969	-262.3412780761719	128.6186065673828	-980.5454101562502	-342.1943664550782	75.59441375732423	-950.305114746094	-122.7126693725586	56.95824432373048	-961.5422363281252	-127.2548828125	57.41989517211915	-921.9206542968752	-168.4298553466797	35.26922225952149	-868.6013793945315	nan	nan	nan	
